<svg id="visual" viewBox="0 0 900 600" width="900" height="600" xmlns="http://www.w3.org/2000/svg" xmlns:xlink="http://www.w3.org/1999/xlink" version="1.1"><rect x="0" y="0" width="900" height="600" fill="#0F3057"></rect><defs><linearGradient id="grad1_0" x1="33.3%" y1="0%" x2="100%" y2="100%"><stop offset="20%" stop-color="#0f3057" stop-opacity="1"></stop><stop offset="80%" stop-color="#0f3057" stop-opacity="1"></stop></linearGradient></defs><defs><linearGradient id="grad2_0" x1="0%" y1="0%" x2="66.7%" y2="100%"><stop offset="20%" stop-color="#0f3057" stop-opacity="1"></stop><stop offset="80%" stop-color="#0f3057" stop-opacity="1"></stop></linearGradient></defs><g transform="translate(900, 0)"><path d="M0 270.4C-27.3 249.3 -54.5 228.1 -90.7 219C-126.9 209.8 -172 212.7 -191.2 191.2C-210.4 169.7 -203.6 123.9 -212.5 88C-221.4 52.1 -245.9 26 -270.4 0L0 0Z" fill="#E7E7DE"></path></g><g transform="translate(0, 600)"><path d="M0 -270.4C28.4 -251 56.7 -231.5 91.8 -221.7C127 -212 168.9 -211.9 191.2 -191.2C213.6 -170.5 216.4 -129.1 226.4 -93.8C236.3 -58.4 253.4 -29.2 270.4 0L0 0Z" fill="#E7E7DE"></path></g></svg>