<svg id="visual" viewBox="0 0 900 600" width="900" height="600" xmlns="http://www.w3.org/2000/svg" xmlns:xlink="http://www.w3.org/1999/xlink" version="1.1"><rect x="0" y="0" width="900" height="600" fill="#008891"></rect><path d="M0 77L21.5 81.2C43 85.3 86 93.7 128.8 97.5C171.7 101.3 214.3 100.7 257.2 119.2C300 137.7 343 175.3 385.8 182.3C428.7 189.3 471.3 165.7 514.2 151C557 136.3 600 130.7 642.8 129.7C685.7 128.7 728.3 132.3 771.2 123.8C814 115.3 857 94.7 878.5 84.3L900 74L900 0L878.5 0C857 0 814 0 771.2 0C728.3 0 685.7 0 642.8 0C600 0 557 0 514.2 0C471.3 0 428.7 0 385.8 0C343 0 300 0 257.2 0C214.3 0 171.7 0 128.8 0C86 0 43 0 21.5 0L0 0Z" fill="#E7E7DE" stroke-linecap="round" stroke-linejoin="miter"></path></svg>